<svg xmlns="http://www.w3.org/2000/svg" viewBox="0 0 80 80" width="80" height="80">
  <polygon points="40,6 71,24 71,56 40,74 9,56 9,24" fill="#B8956E" stroke="#FFFFFF" stroke-width="4.5" stroke-linejoin="round"/>
  <!-- Open Book outline: left and right pages -->
  <path d="M40,21 C31.5,17 23,17 14.5,21 L14.5,57 C23,53 31.5,53 40,59 C48.5,53 57,53 65.5,57 L65.5,21 C57,17 48.5,17 40,21 Z" fill="#FFFFFF" fill-rule="evenodd"/>
  <!-- Spine/Center separation -->
  <path d="M40,21 L40,59" stroke="#B8956E" stroke-width="4" stroke-linecap="round"/>
  <!-- Page lines on Left Page -->
  <line x1="22" y1="29" x2="34" y2="29" stroke="#B8956E" stroke-width="2.8" stroke-linecap="round"/>
  <line x1="22" y1="38" x2="34" y2="38" stroke="#B8956E" stroke-width="2.8" stroke-linecap="round"/>
  <line x1="22" y1="47" x2="30" y2="47" stroke="#B8956E" stroke-width="2.8" stroke-linecap="round"/>
  <!-- Page lines on Right Page -->
  <line x1="46" y1="29" x2="58" y2="29" stroke="#B8956E" stroke-width="2.8" stroke-linecap="round"/>
  <line x1="46" y1="38" x2="58" y2="38" stroke="#B8956E" stroke-width="2.8" stroke-linecap="round"/>
  <line x1="46" y1="47" x2="54" y2="47" stroke="#B8956E" stroke-width="2.8" stroke-linecap="round"/>
</svg>