<svg xmlns="http://www.w3.org/2000/svg" viewBox="0 0 80 80" width="80" height="80">
  <rect width="80" height="80" rx="18" fill="#8E44AD"/>
  <!-- High-quality standard chess knight silhouette, properly sized and centered -->
  <path d="M 22,10 C 22,10 19,11 16,15 C 13,19 13,23 14,24 C 12,24 10,27 11,32 C 12,37 15,37 15,37 C 15,37 16,39 19,39 C 22,39 23,36 23,36 C 23,36 25,38 28,37 C 31,36 32,32 32,29 C 32,26 31,23 30,22 C 29,21 28,21 28,21 C 28,21 29,19 28,16 C 27,13 25,10 22,10 z" 
        transform="translate(15.3, 0.5) scale(1.15)" fill="#FFFFFF"/>
  <rect x="25" y="44" width="30" height="3" rx="1.5" fill="#FFFFFF"/>
  <!-- "960" text — bold, clear, positioned below the base -->
  <text x="40" y="68" 
        font-family="Arial Black, Impact, sans-serif" 
        font-size="25" 
        font-weight="900" 
        fill="#FFFFFF" 
        text-anchor="middle"
        letter-spacing="-1">960</text>
</svg>
